<svg width="22" height="20" viewBox="0 0 22 20" fill="none" xmlns="http://www.w3.org/2000/svg">
<path fill-rule="evenodd" clip-rule="evenodd" d="M20.75 18.25H18.5V1.75C18.5 0.921573 17.8284 0.25 17 0.25H5C4.17157 0.25 3.5 0.921573 3.5 1.75V18.25H1.25C0.835786 18.25 0.5 18.5858 0.5 19C0.5 19.4142 0.835786 19.75 1.25 19.75H20.75C21.1642 19.75 21.5 19.4142 21.5 19C21.5 18.5858 21.1642 18.25 20.75 18.25ZM17 1.75V18.25H15.5V1.75H17ZM5 1.75H14V18.25H5V1.75ZM12.5 10.375C12.5 10.9963 11.9963 11.5 11.375 11.5C10.7537 11.5 10.25 10.9963 10.25 10.375C10.25 9.75368 10.7537 9.25 11.375 9.25C11.9963 9.25 12.5 9.75368 12.5 10.375Z" fill="#121417"/>
</svg>
